_________________________  Visit us at _________________________
  
http://p2pdl.com  ____________________________  http://p2pdl.com

Smashed 2012 BRRip 720p x264 AAC - PRiSTiNE

Genre: Comedy | Drama
Plot: A married couple whose bond is built on a mutual love of alcohol gets their 
relationship put to the test when the wife decides to get sober.
Director: James Ponsoldt
Stars: Mary Elizabeth Winstead, Aaron Paul, Octavia Spencer
Rated: Rated R for alcohol abuse, language, some sexual content and brief drug use

Info: 
http://www.imdb.com/title/tt2063781/

General
Complete name                  : Smashed 2012 BRRip 720p x264 AAC - PRiSTiNE.mp4
Format                         : MPEG-4
Format profile                 : Base Media
File size                      : 453 MiB
Duration                       : 1h 21mn
Overall bit rate mode          : Variable
Overall bit rate               : 781 Kbps

Source                         : 720p BluRay Geckos (Thanks)

Video
Format                         : AVC
Format/Info                    : Advanced Video Codec
Format profile                 : High 10@L4.1
Codec ID/Info                  : Advanced Video Coding
Bit rate                       : 709 Kbps
Width                          : 1 280 pixels
Height                         : 696 pixels
Display aspect ratio           : 1.85:1
Frame rate mode                : Constant
Frame rate                     : 23.976 fps
Color space                    : YUV
Chroma subsampling             : 4:2:0
Bit depth                      : 10 bits
Scan type                      : Progressive
Bits/(Pixel*Frame)             : 0.033
Stream size                    : 411 MiB (91%)

Audio
Format                         : AAC
Bit rate                       : 70.0 Kbps
Channel(s)                     : 2 channels
Channel positions              : Front: L R
Sampling rate                  : 48.0 KHz / 24.0 KHz
Stream size                    : 40.6 MiB (9%)
Language                       : English

Subtitle                       : Yes ( English)


Screens: 
http://www.ultraimg.com/images/vkCxd.jpg 
http://www.ultraimg.com/images/Av5BD.jpg 
http://www.ultraimg.com/images/TBhcL.jpg 
http://www.ultraimg.com/images/sNQir.jpg

Thumbs: 
http://www.ultraimg.com/images/NPy7e.jpg
----------------------------------------------------------------------------------------------------
Encoded using revolutionary 10bit encoding, which enables us to provide you more crispier 
and sharper images at small sizes, just make sure you follow our instructions without a fault.
Recommend to you to use latest version of VLC player. Install K-Lite Codec Pack or shark007 codecs
in case of any kind of problem in playback (For non-VLC Media Player users). Alternatively, install
Core AVC codecs, the fastest decoder that there is coupled with Community Center Codec Pack and play
on Windows Media Player Classic. Check sample to be sure.
Enjoy!